<svg width="90" height="90" viewBox="0 0 90 90" fill="none" xmlns="http://www.w3.org/2000/svg">
<g clip-path="url(#clip0_3385_58578)">
<path d="M13.7431 22.9919C13.7431 22.9919 6.81539 29.6201 6.44091 36.6227V37.9334C6.74049 43.5879 11.0095 46.9207 11.0095 46.9207C17.8623 53.6237 34.4514 62.0493 38.3459 63.9591C38.3459 63.9591 38.5706 64.0715 38.7204 63.9217L38.7953 63.7719V63.6221C28.1603 40.4423 13.7431 22.9919 13.7431 22.9919ZM36.1365 69.6511C36.0616 69.3515 35.7621 69.3515 35.7621 69.3515L8.12604 70.3252C11.1218 75.6801 16.1772 79.7993 21.4572 78.5635C25.0522 77.6274 33.2905 71.8979 35.9867 69.9507C36.2114 69.7635 36.1365 69.6137 36.1365 69.6137V69.6511ZM36.4361 66.7302C24.3032 58.5293 0.786391 45.9845 0.786391 45.9845C0.224683 47.7071 0.0374472 49.3548 0 50.8526V51.1148C0 55.1216 1.49789 57.9302 1.49789 57.9302C4.49366 64.2587 10.2605 66.1685 10.2605 66.1685C12.8818 67.2919 15.5031 67.3294 15.5031 67.3294C15.9525 67.4043 31.9799 67.3294 36.2489 67.3294C36.4361 67.3294 36.5484 67.1422 36.5484 67.1422V66.9175C36.5484 66.8051 36.4361 66.7302 36.4361 66.7302ZM33.9271 11.945C31.2721 12.6229 28.9045 14.1345 27.1722 16.2578C25.44 18.381 24.4344 21.0038 24.3032 23.7409V25.2762C24.4156 27.5231 24.9024 29.2082 24.9024 29.2082C27.3739 40.0679 39.357 57.8553 41.9408 61.6C42.1281 61.7872 42.3153 61.7123 42.3153 61.7123C42.3872 61.6812 42.4476 61.6284 42.4879 61.5612C42.5282 61.494 42.5464 61.4159 42.54 61.3378C46.5094 21.6438 38.3834 11.0837 38.3834 11.0837C37.185 11.1586 33.9271 11.945 33.9271 11.945ZM65.0045 20.4455C65.0045 20.4455 63.1696 13.705 55.8674 11.9076C55.8674 11.9076 53.733 11.3833 51.4861 11.0837C51.4861 11.0837 43.3226 21.6064 47.292 61.3753C47.3295 61.6374 47.5167 61.6749 47.5167 61.6749C47.7789 61.7872 47.8912 61.5625 47.8912 61.5625C50.5874 57.7055 62.4956 39.993 64.9297 29.2082C64.9297 29.2082 66.2778 23.9656 65.0045 20.4455ZM54.07 69.389C54.07 69.389 53.8078 69.389 53.733 69.5762C53.733 69.5762 53.6955 69.8384 53.8453 69.9507C56.4666 71.8605 64.5177 77.4401 68.3748 78.5635C68.3748 78.5635 68.974 78.7508 69.985 78.7882H70.5093C73.0931 78.7133 77.6243 77.4027 81.7434 70.3252L54.0325 69.389H54.07ZM83.3911 37.8959C83.9154 30.1818 76.1264 23.0294 76.1264 22.9919C76.1264 22.9919 61.7092 40.4423 51.1491 63.4349C51.1491 63.4349 51.0368 63.7345 51.224 63.9217L51.3738 63.9591H51.5985C55.5679 61.9744 72.0446 53.5863 78.86 46.9581C78.86 46.9581 83.1664 43.4755 83.3911 37.8959ZM89.0831 45.9096C89.0831 45.9096 65.5663 58.5293 53.4334 66.6928C53.4334 66.6928 53.2461 66.8426 53.321 67.1047C53.321 67.1047 53.4334 67.3294 53.5832 67.3294C57.927 67.3294 74.4038 67.3294 74.8157 67.2545C74.8157 67.2545 76.9502 67.1796 79.5715 66.1685C79.5715 66.1685 85.4133 64.2962 88.4465 57.668C88.4465 57.668 91.1801 52.2382 89.0831 45.9096Z" fill="#C91433"/>
</g>
<defs>
<clipPath id="clip0_3385_58578">
<rect width="89.8732" height="89.8732" fill="white"/>
</clipPath>
</defs>
</svg>
