<svg width="153" height="50" viewBox="0 0 153 50" fill="none" xmlns="http://www.w3.org/2000/svg">
<mask id="mask0_3385_58572" style="mask-type:luminance" maskUnits="userSpaceOnUse" x="0" y="0" width="153" height="50">
<path d="M0 49.026V0H152.606V49.026H0Z" fill="white"/>
</mask>
<g mask="url(#mask0_3385_58572)">
<path d="M0.00390625 49.026V0H152.61V49.026H0.00390625ZM31.8309 30.7638H19.6089V10.3457H14.1569V35.6725H31.8309V30.7638ZM50.4489 19.049C49.4754 17.9805 48.2767 17.1395 46.9386 16.5862C45.6006 16.033 44.1562 15.7812 42.709 15.8489C41.356 15.8031 40.0076 16.0307 38.7452 16.518C37.4829 17.0052 36.3327 17.7419 35.3639 18.6838C34.3952 19.6257 33.628 20.7532 33.1085 21.9983C32.5891 23.2434 32.3283 24.5804 32.3417 25.9286C32.3417 31.8117 36.8103 36.0084 43.3047 36.0084C46.7127 36.0133 49.984 34.6741 52.4032 32.2836L49.0028 29.6828C47.4611 31.0518 45.4559 31.7884 43.3908 31.7443C42.5986 31.781 41.807 31.6605 41.062 31.3897C40.3171 31.1189 39.6336 30.7032 39.0514 30.1669L52.8007 24.4885C52.5554 22.4894 51.7415 20.6017 50.455 19.0478L50.4489 19.049ZM74.4413 23.5962C74.4753 22.555 74.2915 21.5182 73.9014 20.5516C73.5113 19.5851 72.9235 18.7099 72.1754 17.9818C71.4273 17.2537 70.5353 16.6887 69.556 16.3225C68.5768 15.9563 67.5317 15.7971 66.4873 15.855C65.2558 15.8606 64.0417 16.1445 62.9364 16.6852C61.831 17.226 60.8633 18.0095 60.1061 18.9767V16.1688H54.7268V35.6664H60.1061V24.5706C60.1132 24.0065 60.2349 23.4497 60.4638 22.9336C60.6927 22.4176 61.0241 21.953 61.4381 21.5679C61.852 21.1828 62.3399 20.8851 62.8724 20.6928C63.405 20.5005 63.9711 20.4174 64.5367 20.4487C65.1064 20.4196 65.6764 20.5035 66.2133 20.6955C66.7503 20.8875 67.2436 21.1839 67.6646 21.5674C68.0857 21.9509 68.426 22.4138 68.6658 22.9294C68.9057 23.4449 69.0403 24.0028 69.0619 24.5706V35.6664H74.4413V23.5937V23.5962ZM87.1261 15.855C85.1393 15.925 83.2171 16.5758 81.5991 17.7262C79.981 18.8766 78.7387 20.4757 78.027 22.3244C77.3152 24.173 77.1655 26.1894 77.5964 28.1222C78.0273 30.0551 79.0199 31.8189 80.4503 33.1938C81.8808 34.5688 83.6859 35.4941 85.6408 35.8544C87.5956 36.2147 89.6137 35.9942 91.4436 35.2202C93.2734 34.4463 94.8341 33.1531 95.9312 31.502C97.0282 29.8508 97.613 27.9146 97.6128 25.9347C97.599 24.5838 97.3157 23.2491 96.7794 22.0082C96.243 20.7674 95.4643 19.645 94.4885 18.7065C93.5127 17.7681 92.3593 17.0321 91.0954 16.5415C89.8315 16.0509 88.4822 15.8155 87.1261 15.8489V15.855ZM112.649 16.1786L107.789 29.4573L102.926 16.1786H96.7883L104.843 35.6664H110.733L118.788 16.1786H112.649ZM128.516 15.8489C126.529 15.9189 124.607 16.5696 122.989 17.72C121.371 18.8704 120.128 20.4696 119.416 22.3183C118.705 24.1669 118.555 26.1833 118.986 28.1161C119.417 30.0489 120.409 31.8127 121.84 33.1877C123.27 34.5626 125.075 35.4879 127.03 35.8483C128.985 36.2086 131.003 35.9881 132.833 35.2141C134.663 34.4402 136.224 33.147 137.321 31.4958C138.418 29.8447 139.003 27.9085 139.002 25.9286C138.988 24.5782 138.704 23.2442 138.167 22.004C137.63 20.7638 136.852 19.6422 135.876 18.7044C134.9 17.7666 133.747 17.0312 132.484 16.541C131.22 16.0508 129.871 15.8155 128.516 15.8489ZM128.516 31.4146C127.807 31.4047 127.107 31.2542 126.457 30.9716C125.807 30.6891 125.22 30.2804 124.731 29.7693C124.242 29.2583 123.859 28.6551 123.607 27.9952C123.354 27.3353 123.237 26.6319 123.261 25.9262C123.211 25.2205 123.308 24.5123 123.546 23.8459C123.785 23.1796 124.159 22.5694 124.645 22.0539C125.131 21.5384 125.719 21.1286 126.372 20.8502C127.025 20.5719 127.729 20.431 128.439 20.4365C129.148 20.4463 129.848 20.597 130.498 20.8796C131.148 21.1621 131.735 21.571 132.225 22.0822C132.714 22.5934 133.096 23.1967 133.348 23.8567C133.601 24.5167 133.718 25.2203 133.694 25.9262C133.738 26.6303 133.636 27.3359 133.396 27.9994C133.155 28.6629 132.78 29.2704 132.295 29.7843C131.81 30.2982 131.224 30.7078 130.574 30.9878C129.924 31.2677 129.223 31.4122 128.514 31.4122L128.516 31.4146ZM87.1273 31.4146C86.4183 31.4047 85.7184 31.2542 85.0685 30.9716C84.4186 30.6891 83.8319 30.2804 83.3426 29.7693C82.8532 29.2583 82.4711 28.6551 82.2187 27.9952C81.9662 27.3353 81.8484 26.6319 81.8722 25.9262C81.8227 25.2202 81.9202 24.5116 82.1588 23.845C82.3975 23.1783 82.7719 22.5681 83.2588 22.0525C83.7456 21.5369 84.3342 21.1272 84.9877 20.8491C85.6412 20.571 86.3453 20.4305 87.0559 20.4365C87.7644 20.447 88.4637 20.598 89.1129 20.8807C89.7621 21.1635 90.3482 21.5722 90.837 22.0831C91.3258 22.5939 91.7075 23.1967 91.9597 23.8561C92.212 24.5156 92.3297 25.2184 92.3061 25.9237C92.3499 26.6281 92.2485 27.3339 92.008 27.9977C91.7675 28.6615 91.3931 29.2692 90.9078 29.7835C90.4225 30.2977 89.8366 30.7075 89.1862 30.9876C88.5358 31.2677 87.8347 31.4122 87.1261 31.4122L87.1273 31.4146ZM38.6797 22.0507C39.1644 21.423 39.7924 20.9195 40.5116 20.5819C41.2307 20.2443 42.0203 20.0822 42.8149 20.1092C43.7021 20.104 44.571 20.3599 45.3126 20.8449C46.0543 21.3298 46.6355 22.0222 46.9832 22.8351L37.5869 26.7192C37.3151 25.0815 37.7058 23.4033 38.6736 22.0519L38.6797 22.0507Z" fill="#0C0C0C"/>
</g>
</svg>
